HIERARCHY
ROOT Hips
{
  OFFSET 51.7366 93.4908 15.6002
  CHANNELS 6 Xposition Yposition Zposition Zrotation Xrotation Yrotation
  JOINT spine
  {
    OFFSET 0 7.4756 0.429885
    CHANNELS 3 Zrotation Xrotation Yrotation
    JOINT spine1
    {
      OFFSET 0 9.92301 0
      CHANNELS 3 Zrotation Xrotation Yrotation
      JOINT spine2
      {
        OFFSET 0 9.50804 0
        CHANNELS 3 Zrotation Xrotation Yrotation
        JOINT Neck
        {
          OFFSET 0 24.4111 1.16384
          CHANNELS 3 Zrotation Xrotation Yrotation
          JOINT Head
          {
            OFFSET 0 7.37523 0
            CHANNELS 3 Zrotation Xrotation Yrotation
            End Site
            {
              OFFSET 0 17.8522 -5.88741
            }
          }
        }
        JOINT RightShoulder
        {
          OFFSET -4.00356 10.2679 -0.557468
          CHANNELS 3 Zrotation Xrotation Yrotation
          JOINT RightArm
          {
            OFFSET 0 13.4673 0
            CHANNELS 3 Zrotation Xrotation Yrotation
            JOINT RightArmRoll
            {
              OFFSET 0 6.79858 0
              CHANNELS 3 Zrotation Xrotation Yrotation
              JOINT RightForeArm
              {
                OFFSET 0 19.8018 0
                CHANNELS 3 Zrotation Xrotation Yrotation
                JOINT RightForeArmRoll
                {
                  OFFSET 0 7.62906 0
                  CHANNELS 3 Zrotation Xrotation Yrotation
                  JOINT RightHand
                  {
                    OFFSET 0 15.3098 0
                    CHANNELS 3 Zrotation Xrotation Yrotation
                    End Site
                    {
                      OFFSET 0 0 0
                    }
                  }
                }
              }
            }
          }
        }
        JOINT LeftShoulder
        {
          OFFSET 4.00356 10.2679 -0.557468
          CHANNELS 3 Zrotation Xrotation Yrotation
          JOINT LeftArm
          {
            OFFSET 0 13.4673 0
            CHANNELS 3 Zrotation Xrotation Yrotation
            JOINT LeftArmRoll
            {
              OFFSET 0 6.79858 0
              CHANNELS 3 Zrotation Xrotation Yrotation
              JOINT LeftForeArm
              {
                OFFSET 0 19.8018 0
                CHANNELS 3 Zrotation Xrotation Yrotation
                JOINT LeftForeArmRoll
                {
                  OFFSET 0 7.62905 0
                  CHANNELS 3 Zrotation Xrotation Yrotation
                  JOINT LeftHand
                  {
                    OFFSET 0 15.3098 0
                    CHANNELS 3 Zrotation Xrotation Yrotation
                    End Site
                    {
                      OFFSET 0 0 0
                    }
                  }
                }
              }
            }
          }
        }
      }
    }
  }
  JOINT RightUpLeg
  {
    OFFSET -6.62609 -1.21505 -1.01927
    CHANNELS 3 Zrotation Xrotation Yrotation
    JOINT RightUpLegRoll
    {
      OFFSET 0 17.9517 0
      CHANNELS 3 Zrotation Xrotation Yrotation
      JOINT RightLeg
      {
        OFFSET 0 -22.2304 0
        CHANNELS 3 Zrotation Xrotation Yrotation
        JOINT RightLegRoll
        {
          OFFSET 0 22.3032 0
          CHANNELS 3 Zrotation Xrotation Yrotation
          JOINT RightFoot
          {
            OFFSET 0 18.5636 0
            CHANNELS 3 Zrotation Xrotation Yrotation
            JOINT RightToeBase
            {
              OFFSET 0 15.5183 0
              CHANNELS 3 Zrotation Xrotation Yrotation
              End Site
              {
                OFFSET 0.00657761 7.51539 -0.866262
              }
            }
          }
        }
      }
    }
  }
  JOINT LeftUpLeg
  {
    OFFSET 6.62609 -1.21505 -1.01927
    CHANNELS 3 Zrotation Xrotation Yrotation
    JOINT LeftUpLegRoll
    {
      OFFSET 0 17.9518 0
      CHANNELS 3 Zrotation Xrotation Yrotation
      JOINT LeftLeg
      {
        OFFSET 0 22.2303 0
        CHANNELS 3 Zrotation Xrotation Yrotation
        JOINT LeftLegRoll
        {
          OFFSET 0 22.5093 0
          CHANNELS 3 Zrotation Xrotation Yrotation
          JOINT LeftFoot
          {
            OFFSET 0 18.3575 0
            CHANNELS 3 Zrotation Xrotation Yrotation
            JOINT LeftToeBase
            {
              OFFSET 0 15.5183 0
              CHANNELS 3 Zrotation Xrotation Yrotation
              End Site
              {
                OFFSET -0.029478 7.51539 -0.866263
              }
            }
          }
        }
      }
    }
  }
}
MOTION
Frames: 8
Frame Time: 0.00208333
53.5587 93.5276 12.1558 -0.56702 -5.95535 -0.878444 0.324831 -0.200167 0.508618 0.662348 3.6053 0.98421 0.65157 5.25021 0.974068 -12.4432 5.22825 -3.36484 13.4806 4.29721 -5.08807 58.7646 -6.63436 -4.11157 115.191 9.01397 21.4327 -2.27332e-007 -3.98544e-007 -2.99956e-008 3.27205 5.64953 -1.61939 2.10206e-005 -2.94675e-006 -3 8.02984 -4.95142 0.697646 -76.4313 -3.19556 3.38169 -101.649 -2.44689 -29.6526 -1.33834e-005 8.13346e-007 1.14553e-005 0.318123 3.19882 0.853622 -2.18936e-005 2.58789e-006 3 -8.03026 -4.95139 -0.697642 176.898 -0.500758 0.0422907 180 7.01527e-015 178.84 179.905 12.4217 179.386 -2.67945e-006 -4.48744e-006 0.36775 -21.5949 71.0836 22.5282 8.1284 25.2331 -3.48429 -178.095 -5.91868 2.04353 4.54188e-006 -4.6773e-006 -1.16131 -2.28303 -5.72583 0.0583188 3.40533e-006 -6.77322e-007 -0.032955 18.0937 67.2354 -18.9248 -8.1299 25.233 3.48493 
53.5612 93.5246 12.1555 -0.557978 -5.93236 -0.844232 0.321292 -0.197486 0.504087 0.654197 3.6106 0.975002 0.643509 5.25552 0.964991 -12.4173 5.24464 -3.36873 13.4564 4.2167 -5.08003 58.8071 -6.60908 -4.09777 115.111 9.06296 21.3841 -2.27332e-007 -3.98544e-007 -2.99956e-008 3.30646 5.66616 -1.62066 2.10206e-005 -2.94675e-006 -3 8.02984 -4.95142 0.697646 -76.389 -3.17868 3.37137 -101.674 -2.37674 -29.5248 -1.33834e-005 8.13346e-007 1.14553e-005 0.235291 3.24815 0.857944 -2.18936e-005 2.58789e-006 3 -8.03026 -4.95139 -0.697642 176.902 -0.480969 0.0354992 180 7.01527e-015 178.84 179.911 12.4146 179.385 -2.67945e-006 -4.48744e-006 0.36677 -21.5673 71.0579 22.4988 8.1284 25.2331 -3.48429 -178.1 -5.88008 2.04806 4.54188e-006 -4.6773e-006 -1.16107 -2.282 -5.74101 0.0585988 3.40533e-006 -6.77322e-007 -0.032955 18.0872 67.2265 -18.9177 -8.1299 25.233 3.48493 
53.5659 93.5262 12.1579 -0.548968 -5.91059 -0.810729 0.317893 -0.194453 0.499694 0.646283 3.61661 0.96603 0.635684 5.26154 0.956145 -12.3936 5.25876 -3.37299 13.4338 4.13727 -5.07262 58.8476 -6.58511 -4.08464 115.034 9.11058 21.336 -2.27332e-007 -3.98544e-007 -2.99956e-008 3.34032 5.68391 -1.62208 2.10206e-005 -2.94675e-006 -3 8.02984 -4.95142 0.697646 -76.3483 -3.16203 3.36128 -101.702 -2.30837 -29.3962 -1.33834e-005 8.13346e-007 1.14553e-005 0.151106 3.29891 0.86237 -2.18936e-005 2.58789e-006 3 -8.03026 -4.95139 -0.697642 176.906 -0.462776 0.0288096 180 7.01527e-015 178.84 179.916 12.4065 179.384 -2.67945e-006 -4.48744e-006 0.365768 -21.5392 71.0317 22.4689 8.1284 25.2331 -3.48429 -178.106 -5.84308 2.05251 4.54188e-006 -4.6773e-006 -1.16086 -2.28108 -5.75616 0.0588536 3.40533e-006 -6.77322e-007 -0.032955 18.0807 67.2177 -18.9106 -8.1299 25.233 3.48493 
53.5675 93.5268 12.1594 -0.539984 -5.88969 -0.777725 0.314592 -0.191174 0.495397 0.638537 3.62312 0.957223 0.628023 5.26804 0.947462 -12.3714 5.27128 -3.37751 13.4123 4.0586 -5.06566 58.8867 -6.56206 -4.07198 114.96 9.15726 21.2883 -2.27332e-007 -3.98544e-007 -2.99956e-008 3.37381 5.70243 -1.62361 2.10206e-005 -2.94675e-006 -3 8.02984 -4.95142 0.697646 -76.3087 -3.14555 3.35137 -101.731 -2.2412 -29.267 -1.33834e-005 8.13346e-007 1.14553e-005 0.0659691 3.35067 0.86687 -2.18936e-005 2.58789e-006 3 -8.03026 -4.95139 -0.697642 176.911 -0.4457 0.0221915 180 7.01527e-015 178.84 179.921 12.3978 179.383 -2.67945e-006 -4.48744e-006 0.364751 -21.5108 71.0052 22.4387 8.1284 25.2331 -3.48429 -178.112 -5.80722 2.05692 4.54188e-006 -4.6773e-006 -1.16067 -2.28021 -5.77128 0.0590908 3.40533e-006 -6.77322e-007 -0.032955 18.0743 67.2089 -18.9036 -8.1299 25.233 3.48493 
53.5632 93.5261 12.1648 -0.531025 -5.86928 -0.745006 0.311348 -0.187754 0.491155 0.630887 3.6299 0.94851 0.620458 5.27483 0.938872 -12.3502 5.28288 -3.38217 13.3915 3.98037 -5.05896 58.9249 -6.53953 -4.05958 114.887 9.20341 21.2408 -2.27332e-007 -3.98544e-007 -2.99956e-008 3.40708 5.7214 -1.62519 2.10206e-005 -2.94675e-006 -3 8.02984 -4.95142 0.697646 -76.2697 -3.12916 3.34156 -101.761 -2.17464 -29.1374 -1.33834e-005 8.13346e-007 1.14553e-005 -0.0197143 3.40301 0.871412 -2.18936e-005 2.58789e-006 3 -8.03026 -4.95139 -0.697642 176.915 -0.429262 0.0156141 180 7.01527e-015 178.84 179.927 12.3887 179.382 -2.67945e-006 -4.48744e-006 0.363726 -21.4823 70.9784 22.4083 8.1284 25.2331 -3.48429 -178.118 -5.77199 2.0613 4.54188e-006 -4.6773e-006 -1.16049 -2.27939 -5.78638 0.0593179 3.40533e-006 -6.77322e-007 -0.032955 18.0679 67.2002 -18.8967 -8.1299 25.233 3.48493 
53.566 93.5231 12.1648 -0.52209 -5.84899 -0.712359 0.308117 -0.184298 0.486927 0.623263 3.63676 0.93982 0.612919 5.28169 0.930305 -12.3292 5.29426 -3.38687 13.3708 3.90224 -5.05233 58.963 -6.51714 -4.04725 114.814 9.24944 21.1934 -2.27332e-007 -3.98544e-007 -2.99956e-008 3.44029 5.74048 -1.6268 2.10206e-005 -2.94675e-006 -3 8.02984 -4.95142 0.697646 -76.2308 -3.1128 3.33177 -101.792 -2.10809 -29.0079 -1.33834e-005 8.13346e-007 1.14553e-005 -0.105541 3.45549 0.875966 -2.18936e-005 2.58789e-006 3 -8.03026 -4.95139 -0.697642 176.919 -0.412984 0.00904704 180 7.01527e-015 178.84 179.933 12.3795 179.38 -2.67945e-006 -4.48744e-006 0.362698 -21.4538 70.9516 22.378 8.1284 25.2331 -3.48429 -178.124 -5.73693 2.06568 4.54188e-006 -4.6773e-006 -1.16032 -2.27857 -5.80148 0.0595426 3.40533e-006 -6.77322e-007 -0.032955 18.0615 67.1915 -18.8897 -8.1299 25.233 3.48493 
53.5675 93.523 12.1577 -0.513178 -5.82845 -0.679574 0.30486 -0.180914 0.482672 0.615594 3.64347 0.931083 0.605334 5.2884 0.921691 -12.3078 5.3061 -3.3915 13.3498 3.8239 -5.04559 59.0014 -6.49448 -4.03479 114.741 9.29576 21.1458 -2.27332e-007 -3.98544e-007 -2.99956e-008 3.47362 5.75934 -1.62837 2.10206e-005 -2.94675e-006 -3 8.02984 -4.95142 0.697646 -76.1916 -3.09639 3.32193 -101.823 -2.04096 -28.8786 -1.33834e-005 8.13346e-007 1.14553e-005 -0.191106 3.50768 0.880501 -2.18936e-005 2.58789e-006 3 -8.03026 -4.95139 -0.697642 176.923 -0.396387 0.00245957 180 7.01527e-015 178.839 179.938 12.3705 179.379 -2.67945e-006 -4.48744e-006 0.361675 -21.4256 70.925 22.3479 8.1284 25.2331 -3.48429 -178.13 -5.70154 2.07006 4.54188e-006 -4.6773e-006 -1.16014 -2.27774 -5.81659 0.0597722 3.40533e-006 -6.77322e-007 -0.032955 18.0551 67.1827 -18.8828 -8.1299 25.233 3.48493 
53.5685 93.5238 12.1617 -0.50429 -5.80729 -0.646439 0.301533 -0.177705 0.478347 0.607808 3.64983 0.922229 0.597635 5.29477 0.912961 -12.2852 5.31907 -3.39594 13.3281 3.745 -5.03854 59.0409 -6.47116 -4.022 114.666 9.34281 21.098 -2.27332e-007 -3.98544e-007 -2.99956e-008 3.50722 5.77765 -1.62987 2.10206e-005 -2.94675e-006 -3 8.02984 -4.95142 0.697646 -76.1516 -3.07985 3.31197 -101.853 -1.97265 -28.7498 -1.33834e-005 8.13346e-007 1.14553e-005 -0.276006 3.55916 0.884985 -2.18936e-005 2.58789e-006 3 -8.03026 -4.95139 -0.697642 176.927 -0.378992 -0.00417885 180 7.01527e-015 178.839 179.944 12.3619 179.378 -2.67945e-006 -4.48744e-006 0.360663 -21.3976 70.8985 22.3181 8.1284 25.2331 -3.48429 -178.136 -5.66536 2.07449 4.54188e-006 -4.6773e-006 -1.15994 -2.27685 -5.83172 0.0600145 3.40533e-006 -6.77322e-007 -0.032955 18.0487 67.1739 -18.8758 -8.1299 25.233 3.48493 
